<?xml version="1.0" encoding="UTF-8"?>
<svg xmlns="http://www.w3.org/2000/svg" viewBox="0 0 1095 1095" width="1095" height="1095">
<path d="M0.25 0.25C365.08 0.25 729.92 0.25 1094.75 0.25C1094.75 365.08 1094.75 729.92 1094.75 1094.75C729.92 1094.75 365.08 1094.75 0.25 1094.75C0.25 729.92 0.25 365.08 0.25 0.25ZM405.5 678.85C399.57 670.3 395.7 659.8 390.98 650.53C380.16 629.31 369.35 608.09 358.7 586.78C338.62 546.62 318.13 506.65 297.96 466.54C286.58 443.91 275.58 421.08 263.82 398.66C250.92 374.04 238.91 348.94 226.36 324.17C222.87 317.29 219.47 310.37 216.06 303.46C214.96 301.25 213.94 297.16 211.86 295.68C208.87 293.55 197.53 294.73 193.5 294.69C180.84 294.55 168.16 294.55 155.5 294.69C149.65 294.76 142.9 293.78 137.32 295.5C208.55 428.3 279.78 561.11 351.01 693.91C387.48 693.91 423.94 693.91 460.4 693.91C520.1 576.69 579.8 459.47 639.5 342.26C647.78 340.62 657.03 341.77 665.5 341.79C681.5 341.81 697.5 341.78 713.5 341.77C735.83 341.75 758.17 341.83 780.5 341.77C792.17 341.73 803.83 341.71 815.5 341.68C825.9 341.66 836.35 341.3 846.54 343.79C873.19 350.29 895.1 372.52 901.36 399.28C903.5 408.45 903.97 418.14 902.93 427.5C899.81 455.54 878.7 480.55 852.24 489.65C840.01 493.85 827.27 493.77 814.5 493.86C770.17 494.18 725.83 493.9 681.5 493.76C667.5 493.72 653.5 493.7 639.5 493.68C631.66 493.67 623.22 492.81 615.55 494.5C610.83 501.54 607.77 509.84 603.84 517.34C595.44 533.38 587.5 549.68 579.38 565.85C561.23 602.03 542.77 638.04 524.77 674.29C515.62 692.72 505.76 710.81 496.83 729.34C493.55 736.15 487.4 744.03 486.5 751.47C498.26 752.83 510.66 751.89 522.5 751.86C542.17 751.82 561.83 751.89 581.5 751.82C638.83 751.63 696.17 751.84 753.5 751.86C778.17 751.86 802.83 751.84 827.5 751.83C852.27 751.83 875.87 751.96 899.25 742.71C910.88 738.1 921.29 731.24 931.04 723.53C976.76 687.45 989.11 625.83 964.98 573.51C956.8 555.77 942.9 539.76 927.32 528.15C921.56 523.87 915.23 520.56 909.34 516.5C911.64 511.57 924.87 499.74 929.34 493.81C941 478.35 949.03 461.47 953.08 442.5C956.55 426.28 956.03 408.83 952.68 392.65C950.16 380.44 945.72 368.75 939.6 357.88C922.82 328.03 892.83 304.85 859.16 297.45C842.56 293.8 825.39 294.8 808.5 294.73C781.83 294.62 755.17 294.8 728.5 294.73C697.17 294.64 665.83 294.63 634.5 294.75C626.5 294.78 618.5 294.73 610.5 294.74C607.53 294.74 602.67 293.93 600.07 295.59C598.14 296.83 597.07 300.62 596.08 302.59C593.08 308.57 590.01 314.53 587.03 320.51C576.26 342.09 565.37 363.61 554.74 385.25C536.14 423.11 516.43 460.42 497.71 498.23C481.53 530.93 465.22 563.57 448.53 596.02C439.01 614.52 429.4 633.05 420.24 651.72C417.06 658.2 410.4 674.83 405.5 678.85ZM755.66 404.29C739.93 407.86 745.54 433.34 762.23 428.63C777.24 424.4 771.01 400.8 755.66 404.29ZM800.65 404.28C784.63 407.93 790.23 433.19 807.25 428.65C822.18 424.66 815.85 400.81 800.65 404.28ZM845.57 404.22C830.57 407.56 834.9 432.41 851.45 428.86C866.97 425.52 861.38 400.7 845.57 404.22ZM724.96 407.8C720.3 406.66 715.29 407.19 710.5 407.16C699.5 407.08 688.5 407.17 677.5 407.15C670.08 407.13 660.53 405.79 653.5 408.06C650.74 413.87 647.98 419.69 645.23 425.5C652.44 428.34 662.73 426.67 670.5 426.69C682.17 426.72 693.83 426.63 705.5 426.63C711.9 426.64 718.66 427.31 724.96 426.11C724.96 420.01 724.96 413.91 724.96 407.8ZM564.37 709.5C565.25 703.8 569.49 697.81 572.13 692.62C577.95 681.14 583.72 669.62 589.64 658.19C603.45 631.56 616.72 604.65 630.5 578C636 567.37 640.28 555.15 647.5 545.57C655.36 544.68 663.59 545.32 671.5 545.3C686.17 545.28 700.83 545.3 715.5 545.3C747.17 545.31 778.83 545.33 810.5 545.29C831.14 545.27 852.27 543.44 872.28 549.31C913.19 561.32 937.8 604.02 928.96 645.48C922.47 675.92 895.74 701.65 865.49 707.95C854.19 710.31 842.99 709.94 831.5 709.95C817.5 709.97 803.5 709.95 789.5 709.95C743.5 709.94 697.5 710.05 651.5 709.97C632.17 709.93 612.83 709.98 593.5 709.97C584.07 709.97 573.63 711.21 564.37 709.5ZM714.75 676.41C699.07 678.67 702.67 703 718.5 701.02C734.13 699.05 730.63 674.13 714.75 676.41ZM759.68 676.38C743.4 678.26 746.37 703.48 763.5 700.96C778.73 698.73 775.06 674.61 759.68 676.38ZM682.5 679.52C659.17 679.52 635.83 679.52 612.5 679.52C609.73 685.51 606.95 691.51 604.18 697.5C611.56 700.14 621.65 698.59 629.5 698.6C640.83 698.62 652.17 698.53 663.5 698.54C669.77 698.55 676.29 699.1 682.5 698.18C684.09 692.67 683.84 685.11 682.5 679.52ZM457.61 713.85C422.67 713.85 387.74 713.85 352.8 713.85C358.37 724.26 363.93 734.67 369.5 745.09C393.83 745.09 418.17 745.09 442.5 745.09C447.54 734.67 452.57 724.26 457.61 713.85ZM238.73 720.37C223.85 723.25 227.83 746.93 242.93 744.47C258.38 741.96 254.41 717.33 238.73 720.37ZM282.62 720.3C267.44 722.57 270.86 746.36 286.2 744.54C301.74 742.7 298.19 717.97 282.62 720.3ZM325.67 720.32C311.36 723.07 314.69 746.18 329.39 744.67C345.39 743.03 341.73 717.24 325.67 720.32Z" fill="#ffffff" fill-rule="evenodd" stroke="#ffffff" stroke-width="0.25" stroke-linejoin="round"/>
<path d="M405.5 678.85C410.4 674.83 417.06 658.2 420.24 651.72C429.4 633.05 439.01 614.52 448.53 596.02C465.22 563.57 481.53 530.93 497.71 498.23C516.43 460.42 536.14 423.11 554.74 385.25C565.37 363.61 576.26 342.09 587.03 320.51C590.01 314.53 593.08 308.57 596.08 302.59C597.07 300.62 598.14 296.83 600.07 295.59C602.67 293.93 607.53 294.74 610.5 294.74C618.5 294.73 626.5 294.78 634.5 294.75C665.83 294.63 697.17 294.64 728.5 294.73C755.17 294.8 781.83 294.62 808.5 294.73C825.39 294.8 842.56 293.8 859.16 297.45C892.83 304.85 922.82 328.03 939.6 357.88C945.72 368.75 950.16 380.44 952.68 392.65C956.03 408.83 956.55 426.28 953.08 442.5C949.03 461.47 941 478.35 929.34 493.81C924.87 499.74 911.64 511.57 909.34 516.5C915.23 520.56 921.56 523.87 927.32 528.15C942.9 539.76 956.8 555.77 964.98 573.51C989.11 625.83 976.76 687.45 931.04 723.53C921.29 731.24 910.88 738.1 899.25 742.71C875.87 751.96 852.27 751.83 827.5 751.83C802.83 751.84 778.17 751.86 753.5 751.86C696.17 751.84 638.83 751.63 581.5 751.82C561.83 751.89 542.17 751.82 522.5 751.86C510.66 751.89 498.26 752.83 486.5 751.47C487.4 744.03 493.55 736.15 496.83 729.34C505.76 710.81 515.62 692.72 524.77 674.29C542.77 638.04 561.23 602.03 579.38 565.85C587.5 549.68 595.44 533.38 603.84 517.34C607.77 509.84 610.83 501.54 615.55 494.5C623.22 492.81 631.66 493.67 639.5 493.68C653.5 493.7 667.5 493.72 681.5 493.76C725.83 493.9 770.17 494.18 814.5 493.86C827.27 493.77 840.01 493.85 852.24 489.65C878.7 480.55 899.81 455.54 902.93 427.5C903.97 418.14 903.5 408.45 901.36 399.28C895.1 372.52 873.19 350.29 846.54 343.79C836.35 341.3 825.9 341.66 815.5 341.68C803.83 341.71 792.17 341.73 780.5 341.77C758.17 341.83 735.83 341.75 713.5 341.77C697.5 341.78 681.5 341.81 665.5 341.79C657.03 341.77 647.78 340.62 639.5 342.26C579.8 459.47 520.1 576.69 460.4 693.91C423.94 693.91 387.48 693.91 351.01 693.91C279.78 561.11 208.55 428.3 137.32 295.5C142.9 293.78 149.65 294.76 155.5 294.69C168.16 294.55 180.84 294.55 193.5 294.69C197.53 294.73 208.87 293.55 211.86 295.68C213.94 297.16 214.96 301.25 216.06 303.46C219.47 310.37 222.87 317.29 226.36 324.17C238.91 348.94 250.92 374.04 263.82 398.66C275.58 421.08 286.58 443.91 297.96 466.54C318.13 506.65 338.62 546.62 358.7 586.78C369.35 608.09 380.16 629.31 390.98 650.53C395.7 659.8 399.57 670.3 405.5 678.85ZM755.66 404.29C771.01 400.8 777.24 424.4 762.23 428.63C745.54 433.34 739.93 407.86 755.66 404.29ZM800.65 404.28C815.85 400.81 822.18 424.66 807.25 428.65C790.23 433.19 784.63 407.93 800.65 404.28ZM845.57 404.22C861.38 400.7 866.97 425.52 851.45 428.86C834.9 432.41 830.57 407.56 845.57 404.22ZM724.96 407.8C724.96 413.91 724.96 420.01 724.96 426.11C718.66 427.31 711.9 426.64 705.5 426.63C693.83 426.63 682.17 426.72 670.5 426.69C662.73 426.67 652.44 428.34 645.23 425.5C647.98 419.69 650.74 413.87 653.5 408.06C660.53 405.79 670.08 407.13 677.5 407.15C688.5 407.17 699.5 407.08 710.5 407.16C715.29 407.19 720.3 406.66 724.96 407.8ZM564.37 709.5C573.63 711.21 584.07 709.97 593.5 709.97C612.83 709.98 632.17 709.93 651.5 709.97C697.5 710.05 743.5 709.94 789.5 709.95C803.5 709.95 817.5 709.97 831.5 709.95C842.99 709.94 854.19 710.31 865.49 707.95C895.74 701.65 922.47 675.92 928.96 645.48C937.8 604.02 913.19 561.32 872.28 549.31C852.27 543.44 831.14 545.27 810.5 545.29C778.83 545.33 747.17 545.31 715.5 545.3C700.83 545.3 686.17 545.28 671.5 545.3C663.59 545.32 655.36 544.68 647.5 545.57C640.28 555.15 636 567.37 630.5 578C616.72 604.65 603.45 631.56 589.64 658.19C583.72 669.62 577.95 681.14 572.13 692.62C569.49 697.81 565.25 703.8 564.37 709.5ZM714.75 676.41C730.63 674.13 734.13 699.05 718.5 701.02C702.67 703 699.07 678.67 714.75 676.41ZM759.68 676.38C775.06 674.61 778.73 698.73 763.5 700.96C746.37 703.48 743.4 678.26 759.68 676.38ZM682.5 679.52C683.84 685.11 684.09 692.67 682.5 698.18C676.29 699.1 669.77 698.55 663.5 698.54C652.17 698.53 640.83 698.62 629.5 698.6C621.65 698.59 611.56 700.14 604.18 697.5C606.95 691.51 609.73 685.51 612.5 679.52C635.83 679.52 659.17 679.52 682.5 679.52ZM457.61 713.85C452.57 724.26 447.54 734.67 442.5 745.09C418.17 745.09 393.83 745.09 369.5 745.09C363.93 734.67 358.37 724.26 352.8 713.85C387.74 713.85 422.67 713.85 457.61 713.85ZM238.73 720.37C254.41 717.33 258.38 741.96 242.93 744.47C227.83 746.93 223.85 723.25 238.73 720.37ZM282.62 720.3C298.19 717.97 301.74 742.7 286.2 744.54C270.86 746.36 267.44 722.57 282.62 720.3ZM325.67 720.32C341.73 717.24 345.39 743.03 329.39 744.67C314.69 746.18 311.36 723.07 325.67 720.32Z" fill="#010101" fill-rule="evenodd" stroke="#010101" stroke-width="0.25" stroke-linejoin="round"/>
</svg>